{
  "accessors": [
    {
      "bufferView": 2,
      "componentType": 5126,
      "count": 65532,
      "max": [
        31.076192855834961,
        29.7813720703125,
        35.634548187255859
      ],
      "min": [
        0,
        0,
        0.0481719970703125
      ],
      "type": "VEC3"
    },
    {
      "bufferView": 2,
      "byteOffset": 786384,
      "componentType": 5126,
      "count": 65532,
      "max": [
        0.99993240833282471,
        0.99991202354431152,
        0.99998033046722412
      ],
      "min": [
        -0.99999547004699707,
        -0.99999648332595825,
        -0.99998223781585693
      ],
      "type": "VEC3"
    },
    {
      "bufferView": 1,
      "componentType": 5126,
      "count": 65532,
      "max": [
        0.99331802129745483,
        0.99949097633361816
      ],
      "min": [
        0.0039049999322742224,
        0.0033909999765455723
      ],
      "type": "VEC2"
    },
    {
      "bufferView": 0,
      "componentType": 5125,
      "count": 276588,
      "max": [
        65531
      ],
      "min": [
        0
      ],
      "type": "SCALAR"
    },
    {
      "bufferView": 2,
      "byteOffset": 1572768,
      "componentType": 5126,
      "count": 65534,
      "max": [
        30.668819427490234,
        26.63606071472168,
        35.592308044433594
      ],
      "min": [
        4.9997663497924805,
        11.020961761474609,
        0.0481719970703125
      ],
      "type": "VEC3"
    },
    {
      "bufferView": 2,
      "byteOffset": 2359176,
      "componentType": 5126,
      "count": 65534,
      "max": [
        0.99997633695602417,
        0.99992078542709351,
        0.99994003772735596
      ],
      "min": [
        -0.99993276596069336,
        -0.9999774694442749,
        -0.99999493360519409
      ],
      "type": "VEC3"
    },
    {
      "bufferView": 1,
      "byteOffset": 524256,
      "componentType": 5126,
      "count": 65534,
      "max": [
        0.99379897117614746,
        0.99989300966262817
      ],
      "min": [
        0.0039650001563131809,
        0.0036180000752210617
      ],
      "type": "VEC2"
    },
    {
      "bufferView": 0,
      "byteOffset": 1106352,
      "componentType": 5125,
      "count": 231966,
      "max": [
        65533
      ],
      "min": [
        0
      ],
      "type": "SCALAR"
    },
    {
      "bufferView": 2,
      "byteOffset": 3145584,
      "componentType": 5126,
      "count": 65533,
      "max": [
        32.807209014892578,
        22.375812530517578,
        34.219158172607422
      ],
      "min": [
        10.263640403747559,
        8.0600528717041016,
        0.81036758422851562
      ],
      "type": "VEC3"
    },
    {
      "bufferView": 2,
      "byteOffset": 3931980,
      "componentType": 5126,
      "count": 65533,
      "max": [
        0.99996012449264526,
        0.99993753433227539,
        0.9999813437461853
      ],
      "min": [
        -0.99999386072158813,
        -0.99996215105056763,
        -0.99999308586120605
      ],
      "type": "VEC3"
    },
    {
      "bufferView": 1,
      "byteOffset": 1048528,
      "componentType": 5126,
      "count": 65533,
      "max": [
        0.99409002065658569,
        0.99992102384567261
      ],
      "min": [
        0.003903999924659729,
        0.0035929998848587275
      ],
      "type": "VEC2"
    },
    {
      "bufferView": 0,
      "byteOffset": 2034216,
      "componentType": 5125,
      "count": 221529,
      "max": [
        65532
      ],
      "min": [
        0
      ],
      "type": "SCALAR"
    },
    {
      "bufferView": 2,
      "byteOffset": 4718376,
      "componentType": 5126,
      "count": 65532,
      "max": [
        32.986980438232422,
        21.396800994873047,
        24.66888427734375
      ],
      "min": [
        12.064462661743164,
        6.7072439193725586,
        0
      ],
      "type": "VEC3"
    },
    {
      "bufferView": 2,
      "byteOffset": 5504760,
      "componentType": 5126,
      "count": 65532,
      "max": [
        0.99989622831344604,
        0.99995142221450806,
        0.99998396635055542
      ],
      "min": [
        -0.99996834993362427,
        -0.99999946355819702,
        -0.99996787309646606
      ],
      "type": "VEC3"
    },
    {
      "bufferView": 1,
      "byteOffset": 1572792,
      "componentType": 5126,
      "count": 65532,
      "max": [
        0.99500101804733276,
        0.99953198432922363
      ],
      "min": [
        0.0027789999730885029,
        0.039314001798629761
      ],
      "type": "VEC2"
    },
    {
      "bufferView": 0,
      "byteOffset": 2920332,
      "componentType": 5125,
      "count": 204090,
      "max": [
        65531
      ],
      "min": [
        0
      ],
      "type": "SCALAR"
    },
    {
      "bufferView": 2,
      "byteOffset": 6291144,
      "componentType": 5126,
      "count": 65532,
      "max": [
        32.173862457275391,
        17.132863998413086,
        21.933805465698242
      ],
      "min": [
        15.186112403869629,
        5.3581962585449219,
        0.79546928405761719
      ],
      "type": "VEC3"
    },
    {
      "bufferView": 2,
      "byteOffset": 7077528,
      "componentType": 5126,
      "count": 65532,
      "max": [
        0.9999883770942688,
        0.99997454881668091,
        0.99998396635055542
      ],
      "min": [
        -0.9999803900718689,
        -0.99997925758361816,
        -0.99995499849319458
      ],
      "type": "VEC3"
    },
    {
      "bufferView": 1,
      "byteOffset": 2097048,
      "componentType": 5126,
      "count": 65532,
      "max": [
        0.99585002660751343,
        0.99999898672103882
      ],
      "min": [
        0.002466999925673008,
        0.013201000168919563
      ],
      "type": "VEC2"
    },
    {
      "bufferView": 0,
      "byteOffset": 3736692,
      "componentType": 5125,
      "count": 210591,
      "max": [
        65531
      ],
      "min": [
        0
      ],
      "type": "SCALAR"
    },
    {
      "bufferView": 2,
      "byteOffset": 7863912,
      "componentType": 5126,
      "count": 54877,
      "max": [
        32.424179077148438,
        29.337114334106445,
        22.707309722900391
      ],
      "min": [
        0.71129894256591797,
        4.7605190277099609,
        1.7626266479492188
      ],
      "type": "VEC3"
    },
    {
      "bufferView": 2,
      "byteOffset": 8522436,
      "componentType": 5126,
      "count": 54877,
      "max": [
        0.99999964237213135,
        0.99993127584457397,
        0.99995803833007812
      ],
      "min": [
        -0.99986982345581055,
        -0.99992430210113525,
        -0.99998301267623901
      ],
      "type": "VEC3"
    },
    {
      "bufferView": 1,
      "byteOffset": 2621304,
      "componentType": 5126,
      "count": 54877,
      "max": [
        0.99576199054718018,
        1.0003030300140381
      ],
      "min": [
        0.0029609999619424343,
        0.0036679999902844429
      ],
      "type": "VEC2"
    },
    {
      "bufferView": 0,
      "byteOffset": 4579056,
      "componentType": 5125,
      "count": 160650,
      "max": [
        54876
      ],
      "min": [
        0
      ],
      "type": "SCALAR"
    }
  ],
  "asset": {
    "extras": {
      "author": "California Academy of Sciences Viz Studio (https://sketchfab.com/vizstudio)",
      "license": "CC-BY-NC-ND-4.0 (http://creativecommons.org/licenses/by-nc-nd/4.0/)",
      "source": "https://sketchfab.com/3d-models/hydnophora-rigida-358c1f45c51a476c9e086b1de1e5e0c2",
      "title": "Hydnophora rigida"
    },
    "generator": "Sketchfab-9.62.3",
    "version": "2.0"
  },
  "bufferViews": [
    {
      "buffer": 0,
      "byteLength": 5221656,
      "byteOffset": 0,
      "name": "floatBufferViews",
      "target": 34963
    },
    {
      "buffer": 0,
      "byteLength": 3060320,
      "byteOffset": 5221656,
      "byteStride": 8,
      "name": "floatBufferViews",
      "target": 34962
    },
    {
      "buffer": 0,
      "byteLength": 9180960,
      "byteOffset": 8281976,
      "byteStride": 12,
      "name": "floatBufferViews",
      "target": 34962
    }
  ],
  "buffers": [
    {
      "byteLength": 17462936,
      "uri": "scene.bin"
    }
  ],
  "extensionsRequired": [
    "KHR_materials_pbrSpecularGlossiness"
  ],
  "extensionsUsed": [
    "KHR_materials_pbrSpecularGlossiness"
  ],
  "images": [
    {
      "uri": "textures/model_diffuse.jpeg"
    }
  ],
  "materials": [
    {
      "doubleSided": true,
      "emissiveFactor": [
        0,
        0,
        0
      ],
      "extensions": {
        "KHR_materials_pbrSpecularGlossiness": {
          "diffuseFactor": [
            1,
            1,
            1,
            1
          ],
          "diffuseTexture": {
            "index": 0,
            "texCoord": 0
          },
          "glossinessFactor": 0.40000000000000002,
          "specularFactor": [
            0,
            0,
            0
          ]
        }
      },
      "name": "model"
    }
  ],
  "meshes": [
    {
      "primitives": [
        {
          "attributes": {
            "NORMAL": 1,
            "POSITION": 0,
            "TEXCOORD_0": 2
          },
          "indices": 3,
          "material": 0,
          "mode": 4
        }
      ]
    },
    {
      "primitives": [
        {
          "attributes": {
            "NORMAL": 5,
            "POSITION": 4,
            "TEXCOORD_0": 6
          },
          "indices": 7,
          "material": 0,
          "mode": 4
        }
      ]
    },
    {
      "primitives": [
        {
          "attributes": {
            "NORMAL": 9,
            "POSITION": 8,
            "TEXCOORD_0": 10
          },
          "indices": 11,
          "material": 0,
          "mode": 4
        }
      ]
    },
    {
      "primitives": [
        {
          "attributes": {
            "NORMAL": 13,
            "POSITION": 12,
            "TEXCOORD_0": 14
          },
          "indices": 15,
          "material": 0,
          "mode": 4
        }
      ]
    },
    {
      "primitives": [
        {
          "attributes": {
            "NORMAL": 17,
            "POSITION": 16,
            "TEXCOORD_0": 18
          },
          "indices": 19,
          "material": 0,
          "mode": 4
        }
      ]
    },
    {
      "primitives": [
        {
          "attributes": {
            "NORMAL": 21,
            "POSITION": 20,
            "TEXCOORD_0": 22
          },
          "indices": 23,
          "material": 0,
          "mode": 4
        }
      ]
    }
  ],
  "nodes": [
    {
      "children": [
        1
      ],
      "name": "RootNode (gltf orientation matrix)",
      "rotation": [
        -0.70710678118654746,
        -0,
        -0,
        0.70710678118654757
      ]
    },
    {
      "children": [
        2
      ],
      "matrix": [
        32.319805145263672,
        0,
        0,
        0,
        0,
        -22.0518907469841,
        -23.628033588235667,
        0,
        0,
        23.628033588235667,
        -22.0518907469841,
        0,
        0,
        2.5376759367645718e-05,
        -0.00016991561278700829,
        1
      ],
      "name": "RootNode (model correction matrix)"
    },
    {
      "children": [
        3
      ],
      "matrix": [
        1,
        0,
        0,
        0,
        0,
        1,
        0,
        0,
        0,
        0,
        1,
        0,
        -16.493490219116211,
        -14.89068603515625,
        -17.81727409362793,
        1
      ],
      "name": "model.obj.cleaner.materialmerger.gles"
    },
    {
      "children": [
        4,
        5,
        6,
        7,
        8,
        9
      ],
      "name": ""
    },
    {
      "mesh": 0,
      "name": ""
    },
    {
      "mesh": 1,
      "name": ""
    },
    {
      "mesh": 2,
      "name": ""
    },
    {
      "mesh": 3,
      "name": ""
    },
    {
      "mesh": 4,
      "name": ""
    },
    {
      "mesh": 5,
      "name": ""
    }
  ],
  "samplers": [
    {
      "magFilter": 9729,
      "minFilter": 9987,
      "wrapS": 10497,
      "wrapT": 10497
    }
  ],
  "scene": 0,
  "scenes": [
    {
      "name": "OSG_Scene",
      "nodes": [
        0
      ]
    }
  ],
  "textures": [
    {
      "sampler": 0,
      "source": 0
    }
  ]
}

